<svg width="28" height="28" viewBox="0 0 28 28" fill="none" xmlns="http://www.w3.org/2000/svg">
<path d="M0.266602 18.4766H27.3398" stroke="white" stroke-width="0.8"/>
<path d="M12.5449 20.1562L15.0596 20.1562" stroke="white" stroke-width="0.8" stroke-linecap="round"/>
<path d="M25.6055 0.400391H2C1.11634 0.400391 0.400391 1.11634 0.400391 2V20.3906C0.400391 21.2743 1.11634 21.9902 2 21.9902H25.6055C26.4891 21.9902 27.2051 21.2743 27.2051 20.3906V2C27.2051 1.11634 26.4891 0.400391 25.6055 0.400391Z" fill="#F45328" stroke="white" stroke-width="0.8"/>
<path d="M10.7285 25.5215H16.8799L15.8652 21.9902L11.7646 21.9863L10.7285 25.5215Z" fill="#F45328" stroke="white" stroke-width="0.8"/>
<path d="M18.5186 25.5078L9.08008 25.5508C8.53953 25.5532 8.10254 25.9926 8.10254 26.5332C8.10276 27.0771 8.54491 27.5172 9.08887 27.5146L18.5273 27.4688C19.0671 27.4661 19.5029 27.028 19.5029 26.4883C19.5028 25.9452 19.0617 25.5055 18.5186 25.5078Z" fill="#F45328" stroke="white" stroke-width="0.8"/>
<path d="M5.12531 6.01562H6.25671C6.84429 6.01562 7.32062 6.49195 7.32062 7.07954C7.32062 7.66712 7.79695 8.14345 8.38453 8.14345H9.37988" stroke="white" stroke-width="0.8"/>
<path d="M22.4509 6.01562H21.3195C20.7319 6.01562 20.2556 6.49195 20.2556 7.07954C20.2556 7.66712 19.7792 8.14345 19.1916 8.14345H18.1963" stroke="white" stroke-width="0.8"/>
<path d="M8.89062 10.3125H5.12695" stroke="white" stroke-width="0.8"/>
<path d="M18.6855 10.3125H22.4492" stroke="white" stroke-width="0.8"/>
<path d="M5.1966 14.7656H6.328C6.91558 14.7656 7.39191 14.2893 7.39191 13.7017C7.39191 13.1141 7.86824 12.6378 8.45582 12.6378H9.45117" stroke="white" stroke-width="0.8"/>
<path d="M22.3796 14.7656H21.2482C20.6606 14.7656 20.1843 14.2893 20.1843 13.7017C20.1843 13.1141 19.7079 12.6378 19.1204 12.6378H18.125" stroke="white" stroke-width="0.8"/>
<path d="M11.5762 12.0312V9.34709C11.5762 8.60959 12.174 8.01172 12.9115 8.01172C13.6491 8.01172 14.2469 8.60959 14.2469 9.3471V12.075M11.6865 10.3984H14.0704M15.9346 12.0586V8.19032" stroke="white" stroke-width="0.8" stroke-linecap="round"/>
<circle cx="1.50684" cy="1.50684" r="1.10684" transform="matrix(-1 0 0 1 5.55078 4.73047)" stroke="white" stroke-width="0.8"/>
<circle cx="23.5615" cy="6.2373" r="1.10684" stroke="white" stroke-width="0.8"/>
<circle cx="13.8018" cy="10.1602" r="4.81484" stroke="white" stroke-width="0.8"/>
<circle cx="1.50684" cy="1.50684" r="1.10684" transform="matrix(-1 0 0 1 5.55078 9.25)" stroke="white" stroke-width="0.8"/>
<circle cx="23.5615" cy="10.7568" r="1.10684" stroke="white" stroke-width="0.8"/>
<circle cx="1.50684" cy="1.50684" r="1.10684" transform="matrix(-1 0 0 1 5.55078 13.2695)" stroke="white" stroke-width="0.8"/>
<circle cx="23.5615" cy="14.7764" r="1.10684" stroke="white" stroke-width="0.8"/>
</svg>
