<svg width="26" height="27" viewBox="0 0 26 27" fill="none" xmlns="http://www.w3.org/2000/svg">
<path d="M20.1639 0.400391H3.40904C3.23995 0.400391 3.07842 0.471542 2.96471 0.59668L0.556503 3.24707C0.456149 3.3575 0.400253 3.50117 0.400253 3.65039V22.748C0.400421 23.0792 0.668717 23.3475 0.999863 23.3477H20.1639C20.4952 23.3477 20.7634 23.0793 20.7635 22.748V1C20.7635 0.66863 20.4953 0.400391 20.1639 0.400391Z" fill="white" stroke="black" stroke-width="0.8"/>
<path d="M22.7382 2.51206L22.7382 13.5062" stroke="black"/>
<path d="M22.2235 2.1003H23.252" stroke="black" stroke-linecap="round"/>
<path d="M22.7382 2.67145V0.744177" stroke="black"/>
<path d="M22.4006 13.3367L22.4009 13.8831C22.401 13.9412 22.4263 13.9964 22.4702 14.0343L22.6791 14.2148C22.7168 14.2474 22.7727 14.2472 22.8103 14.2144L23.0164 14.0343C23.0599 13.9963 23.0848 13.9414 23.0848 13.8837V13.3367H22.4006Z" fill="black"/>
<path d="M23.1544 1.23097H23.5024C23.7233 1.23097 23.9024 1.41006 23.9024 1.63097V2.59618" stroke="black" stroke-width="0.1" stroke-linecap="round"/>
<path d="M12.4457 6.29685L12.5141 6.38083L12.6146 6.41892L15.2445 7.42087L13.7064 9.77927L13.6478 9.87009L13.642 9.97751L13.5014 12.789L10.7836 12.0547L10.6791 12.0263L10.5746 12.0547L7.85683 12.789L7.71718 9.97751L7.71132 9.87009L7.65175 9.77927L6.11269 7.42087L8.74355 6.41892L8.84511 6.38083L8.91347 6.29685L10.6791 4.10349L12.4457 6.29685Z" stroke="black" stroke-width="0.8"/>
<path d="M22.618 15.3035H5.35335C5.02198 15.3035 4.75276 15.5717 4.75276 15.9031V24.3318C4.75276 24.6632 5.02198 24.9324 5.35335 24.9324H22.618C22.9494 24.9324 23.2176 24.6632 23.2176 24.3318V15.9031C23.2176 15.5717 22.9494 15.3035 22.618 15.3035Z" fill="white" stroke="black" stroke-width="0.8"/>
<path d="M24.7931 16.9417H7.52849C7.19712 16.9417 6.9279 17.2099 6.9279 17.5413V26.0003C6.92806 26.3315 7.19722 26.5999 7.52849 26.5999H24.7931C25.1244 26.5999 25.3926 26.3315 25.3927 26.0003V17.5413C25.3927 17.2099 25.1245 16.9417 24.7931 16.9417Z" fill="white" stroke="black" stroke-width="0.8"/>
<path d="M12.1032 20.7539L12.1706 20.8389L12.2722 20.8769L13.2312 21.2422L12.6696 22.1025L12.611 22.1924L12.6052 22.3008L12.5534 23.3252L11.5632 23.0576L11.4587 23.0293L11.3542 23.0576L10.363 23.3252L10.3122 22.3008L10.3064 22.1924L10.2478 22.1025L9.68526 21.2422L10.6452 20.8769L10.7468 20.8389L10.8151 20.7539L11.4587 19.9541L12.1032 20.7539Z" stroke="black" stroke-width="0.8"/>
<path d="M3.34576 3.19505L3.33384 0.931939C3.33288 0.748772 3.10665 0.663156 2.98466 0.799791L0.915263 3.11756C0.798529 3.24831 0.89449 3.4553 1.0697 3.45069L3.15101 3.39603C3.2598 3.39317 3.34633 3.30387 3.34576 3.19505Z" fill="white" stroke="black" stroke-width="0.8"/>
<path d="M15.8241 20.9069H22.8099" stroke="#030303" stroke-width="0.8" stroke-linecap="round"/>
<path d="M15.7953 22.4875H18.3878" stroke="#030303" stroke-width="0.8" stroke-linecap="round"/>
</svg>
