<svg width="26" height="27" viewBox="0 0 26 27" fill="none" xmlns="http://www.w3.org/2000/svg">
<path d="M20.1638 0.400391H3.40892C3.23983 0.400391 3.0783 0.471542 2.96458 0.59668L0.556381 3.24707C0.456027 3.3575 0.400131 3.50117 0.400131 3.65039V22.748C0.400299 23.0792 0.668595 23.3475 0.999741 23.3477H20.1638C20.4951 23.3477 20.7632 23.0793 20.7634 22.748V1C20.7634 0.66863 20.4952 0.400391 20.1638 0.400391Z" fill="#F45328" stroke="white" stroke-width="0.8"/>
<path d="M22.7381 2.51205L22.7381 13.5062" stroke="white"/>
<path d="M22.2234 2.1003H23.2519" stroke="white" stroke-linecap="round"/>
<path d="M22.7381 2.67145V0.744175" stroke="white"/>
<path d="M22.4005 13.3367L22.4008 13.8831C22.4009 13.9412 22.4261 13.9963 22.4701 14.0343L22.679 14.2148C22.7167 14.2474 22.7726 14.2472 22.8101 14.2144L23.0163 14.0343C23.0598 13.9963 23.0847 13.9414 23.0847 13.8837V13.3367H22.4005Z" fill="white"/>
<path d="M23.1543 1.23097H23.5023C23.7232 1.23097 23.9023 1.41006 23.9023 1.63098V2.59618" stroke="white" stroke-width="0.1" stroke-linecap="round"/>
<path d="M12.4456 6.29684L12.5139 6.38083L12.6145 6.41891L15.2444 7.42087L13.7063 9.77927L13.6477 9.87009L13.6419 9.97751L13.5012 12.789L10.7835 12.0547L10.679 12.0263L10.5745 12.0547L7.8567 12.789L7.71706 9.97751L7.7112 9.87009L7.65163 9.77927L6.11256 7.42087L8.74342 6.41891L8.84499 6.38083L8.91335 6.29684L10.679 4.10349L12.4456 6.29684Z" stroke="white" stroke-width="0.8"/>
<path d="M22.6179 15.3035H5.35323C5.02186 15.3035 4.75264 15.5717 4.75264 15.9031V24.3318C4.75264 24.6632 5.02185 24.9324 5.35323 24.9324H22.6179C22.9492 24.9324 23.2175 24.6632 23.2175 24.3318V15.9031C23.2175 15.5717 22.9492 15.3035 22.6179 15.3035Z" fill="#F45328" stroke="white" stroke-width="0.8"/>
<path d="M24.793 16.9417H7.52837C7.197 16.9417 6.92778 17.2099 6.92778 17.5413V26.0003C6.92794 26.3315 7.19709 26.5999 7.52837 26.5999H24.793C25.1243 26.5999 25.3925 26.3315 25.3926 26.0003V17.5413C25.3926 17.2099 25.1244 16.9417 24.793 16.9417Z" fill="#F45328" stroke="white" stroke-width="0.8"/>
<path d="M12.1031 20.7539L12.1705 20.8389L12.272 20.8769L13.231 21.2422L12.6695 22.1025L12.6109 22.1924L12.6051 22.3008L12.5533 23.3252L11.5631 23.0576L11.4586 23.0293L11.3541 23.0576L10.3629 23.3252L10.3121 22.3008L10.3062 22.1924L10.2476 22.1025L9.68513 21.2422L10.6451 20.8769L10.7467 20.8389L10.815 20.7539L11.4586 19.9541L12.1031 20.7539Z" stroke="white" stroke-width="0.8"/>
<path d="M3.34564 3.19504L3.33372 0.931936C3.33275 0.748769 3.10653 0.663153 2.98453 0.799788L0.915141 3.11756C0.798407 3.2483 0.894368 3.45529 1.06958 3.45069L3.15089 3.39603C3.25967 3.39317 3.34621 3.30386 3.34564 3.19504Z" fill="#F45328" stroke="white" stroke-width="0.8"/>
<path d="M15.8239 20.9069H22.8098" stroke="#F45328" stroke-width="0.8" stroke-linecap="round"/>
<path d="M15.7952 22.4875H18.3876" stroke="#F45328" stroke-width="0.8" stroke-linecap="round"/>
</svg>
