<svg width="31" height="28" viewBox="0 0 31 28" fill="none" xmlns="http://www.w3.org/2000/svg">
<path d="M27.8609 5.75539L27.8463 17.8872L25.2916 19.1704V5.75539H27.8609Z" fill="#F45328" stroke="white" stroke-width="0.8"/>
<path d="M20.4381 19.6116L20.401 9.18681L22.8951 9.15556L22.9596 20.4202L20.4381 21.2952V19.6116Z" fill="#F45328" stroke="white" stroke-width="0.8"/>
<path d="M17.4254 11.4296L17.4537 19.7987L15.192 19.5731L15.1266 11.4276L17.4254 11.4296Z" fill="#F45328" stroke="white" stroke-width="0.8"/>
<path d="M12.0455 18.1571L9.80821 17.0008L9.78575 14.2596L12.0455 14.2469V18.1571Z" fill="#F45328" stroke="white" stroke-width="0.8"/>
<path d="M27.9624 0.44983C27.9652 0.228934 27.7883 0.0476303 27.5674 0.0448782L23.9677 2.91765e-05C23.7468 -0.00272298 23.5655 0.174118 23.5628 0.395015C23.56 0.615912 23.7369 0.797215 23.9577 0.799967L27.1575 0.839833L27.1176 4.03958C27.1149 4.26048 27.2917 4.44178 27.5126 4.44454C27.7335 4.44729 27.9148 4.27045 27.9176 4.04955L27.9624 0.44983ZM16.2427 6.40083L16.2372 6.00086L16.2427 6.40083ZM16.1059 6.45751L16.385 6.7441L16.1059 6.45751ZM21.5883 6.27195L21.8676 6.5583L21.5883 6.27195ZM21.4514 6.32876L21.4459 5.9288L21.4514 6.32876ZM27.5625 0.444847L27.2832 0.158503L21.309 5.98561L21.5883 6.27195L21.8676 6.5583L27.8418 0.731192L27.5625 0.444847ZM21.4514 6.32876L21.4459 5.9288L16.2372 6.00086L16.2427 6.40083L16.2482 6.80079L21.457 6.72872L21.4514 6.32876ZM16.1059 6.45751L15.8269 6.17092L10.2948 11.5574L10.5738 11.844L10.8529 12.1306L16.385 6.7441L16.1059 6.45751ZM16.2427 6.40083L16.2372 6.00086C16.0837 6.00299 15.9369 6.06385 15.8269 6.17092L16.1059 6.45751L16.385 6.7441C16.3483 6.77979 16.2994 6.80008 16.2482 6.80079L16.2427 6.40083ZM21.5883 6.27195L21.309 5.98561C21.3457 5.94984 21.3947 5.92951 21.4459 5.9288L21.4514 6.32876L21.457 6.72872C21.6106 6.7266 21.7576 6.6656 21.8676 6.5583L21.5883 6.27195Z" fill="white"/>
<path d="M1.44005 15.7613H6.81016V17.3003V21.0365V26.2261H0.440045L1.44005 15.7613Z" fill="#F45328"/>
<path fill-rule="evenodd" clip-rule="evenodd" d="M6.81016 21.0365V17.3003H10.0035C10.3043 17.3003 10.6013 17.3682 10.8723 17.4989L14.6744 19.3326C14.8555 19.42 15.054 19.4653 15.255 19.4653H19.3598C20.0453 19.4653 20.601 20.021 20.601 20.7065C20.601 21.1302 20.3888 21.5042 20.0648 21.7282L19.6859 21.9044L15.1258 21.9477H14.2629C14.2062 21.9477 14.1501 21.9509 14.095 21.9572C14.095 21.9572 13.5811 22.0451 13.2165 22.3768C12.8243 22.7336 12.7875 23.3258 12.7875 23.3258C12.7852 23.3591 12.7841 23.3927 12.7841 23.4266L12.7875 23.3258C12.8355 22.6119 13.3902 22.0368 14.095 21.9572L15.1258 21.9477H19.3598C19.4704 21.9477 19.5838 21.9316 19.6859 21.9044C19.8231 21.8672 19.9509 21.807 20.0648 21.7282L27.5936 18.226C28.3758 17.8562 29.3104 18.1753 29.7032 18.9463C30.1025 19.7303 29.794 20.6896 29.0125 21.0938L17.7369 26.9257C17.036 27.2882 16.217 27.3467 15.4718 27.0875L9.38272 24.9694C9.36159 24.9621 9.33938 24.9583 9.31701 24.9583L6.85903 24.9314L6.81016 21.0365Z" fill="#F45328"/>
<path d="M6.81016 17.3003V15.7613H1.44005L0.440045 26.2261H6.81016V21.0365M6.81016 17.3003V21.0365M6.81016 17.3003H10.0035C10.3043 17.3003 10.6013 17.3682 10.8723 17.4989L14.6744 19.3326C14.8555 19.42 15.054 19.4653 15.255 19.4653H19.3598C20.0453 19.4653 20.601 20.021 20.601 20.7065C20.601 21.1302 20.3888 21.5042 20.0648 21.7282M6.81016 17.3003H6.76329L6.81016 21.0365M6.81016 21.0365L6.85903 24.9314L9.31701 24.9583C9.33938 24.9583 9.36159 24.9621 9.38272 24.9694L15.4718 27.0875C16.217 27.3467 17.036 27.2882 17.7369 26.9257L29.0125 21.0938C29.794 20.6896 30.1025 19.7303 29.7032 18.9463C29.3104 18.1753 28.3758 17.8562 27.5936 18.226L20.0648 21.7282M20.0648 21.7282L19.6859 21.9044M15.1258 21.9477H19.3598C19.4704 21.9477 19.5838 21.9316 19.6859 21.9044C19.8231 21.8672 19.9509 21.807 20.0648 21.7282M19.6859 21.9044L15.1258 21.9477M15.1258 21.9477H14.2629M15.1258 21.9477L14.095 21.9572M12.7875 23.3258C12.8355 22.6119 13.3902 22.0368 14.095 21.9572C14.1501 21.9509 14.2062 21.9477 14.2629 21.9477M14.2629 21.9477L14.095 21.9572M14.095 21.9572C14.095 21.9572 13.5811 22.0451 13.2165 22.3768C12.8243 22.7336 12.7875 23.3258 12.7875 23.3258M12.7875 23.3258C12.7852 23.3591 12.7841 23.3927 12.7841 23.4266L12.7875 23.3258Z" stroke="white" stroke-width="0.8"/>
</svg>
