<svg width="26" height="28" viewBox="0 0 26 28" fill="none" xmlns="http://www.w3.org/2000/svg">
<rect x="0.426367" y="0.4" width="24.6688" height="19.1961" rx="1.6" fill="white"/>
<rect x="0.426367" y="0.4" width="24.6688" height="19.1961" rx="1.6" stroke="black" stroke-width="0.8"/>
<rect x="0.426367" y="0.4" width="24.6688" height="19.1961" rx="1.6" stroke="black" stroke-width="0.8"/>
<path d="M0 4.28906H25.4316" stroke="black" stroke-width="0.8"/>
<path d="M0 4.28906H25.4316" stroke="black" stroke-width="0.8"/>
<path d="M2.19629 2.32422H3.50293" stroke="black" stroke-width="0.8" stroke-linecap="round"/>
<path d="M2.19629 2.32422H3.50293" stroke="black" stroke-width="0.8" stroke-linecap="round"/>
<path d="M5.38086 2.32422H6.6875" stroke="black" stroke-width="0.8" stroke-linecap="round"/>
<path d="M5.38086 2.32422H6.6875" stroke="black" stroke-width="0.8" stroke-linecap="round"/>
<path d="M10.9492 6.97266H13.6143" stroke="black" stroke-width="0.8" stroke-linecap="round"/>
<path d="M10.9492 6.97266H13.6143" stroke="black" stroke-width="0.8" stroke-linecap="round"/>
<path d="M14.9492 6.97266H22.9443" stroke="black" stroke-width="0.8" stroke-linecap="round"/>
<path d="M14.9492 6.97266H22.9443" stroke="black" stroke-width="0.8" stroke-linecap="round"/>
<path d="M10.9062 8.76953L22.9316 8.76953" stroke="black" stroke-width="0.8" stroke-linecap="round"/>
<path d="M10.9062 8.76953L22.9316 8.76953" stroke="black" stroke-width="0.8" stroke-linecap="round"/>
<path d="M10.9189 11.9727H13.6104" stroke="black" stroke-width="0.8" stroke-linecap="round"/>
<path d="M10.9189 11.9727H13.6104" stroke="black" stroke-width="0.8" stroke-linecap="round"/>
<path d="M15.0537 11.9727L22.9443 11.9727" stroke="black" stroke-width="0.8" stroke-linecap="round"/>
<path d="M15.0537 11.9727L22.9443 11.9727" stroke="black" stroke-width="0.8" stroke-linecap="round"/>
<path d="M10.9189 13.9727L17.1982 13.9727" stroke="black" stroke-width="0.8" stroke-linecap="round"/>
<path d="M10.9189 13.9727L17.1982 13.9727" stroke="black" stroke-width="0.8" stroke-linecap="round"/>
<path d="M19.585 16.1055L19.585 15.0547" stroke="black" stroke-width="0.8" stroke-linecap="round"/>
<path d="M19.585 16.1055L19.585 15.0547" stroke="black" stroke-width="0.8" stroke-linecap="round"/>
<path d="M21.042 17.0742L21.7656 16.3123" stroke="black" stroke-width="0.8" stroke-linecap="round"/>
<path d="M21.042 17.0742L21.7656 16.3123" stroke="black" stroke-width="0.8" stroke-linecap="round"/>
<path d="M21.9775 18.3438L23.028 18.3697" stroke="black" stroke-width="0.8" stroke-linecap="round"/>
<path d="M21.9775 18.3438L23.028 18.3697" stroke="black" stroke-width="0.8" stroke-linecap="round"/>
<path d="M4.3125 11.8907V8.8844C4.3125 8.72981 4.48039 8.63367 4.61372 8.7119L7.18781 10.2223C7.31984 10.2998 7.31944 10.4908 7.18708 10.5677L4.61299 12.0637C4.47966 12.1411 4.3125 12.0449 4.3125 11.8907Z" stroke="black" stroke-width="0.8"/>
<rect x="2.42637" y="6.95859" width="6.82793" height="6.87969" rx="0.6" stroke="black" stroke-width="0.8"/>
<rect x="2.42637" y="6.95859" width="6.82793" height="6.87969" rx="0.6" stroke="black" stroke-width="0.8"/>
<circle cx="19.2207" cy="18.7842" r="1.04043" fill="white" stroke="black" stroke-width="0.8"/>
<rect x="15.0425" y="17.5958" width="1.81061" height="7.67512" rx="0.905306" transform="rotate(-46.169 15.0425 17.5958)" fill="white" stroke="black" stroke-width="0.8"/>
<path d="M19.9779 22.4921C19.5812 22.6243 19.2182 22.8521 18.9266 23.1642L17.8627 24.3034L17.7586 24.4119C16.7641 25.4478 15.1181 25.4807 14.0822 24.4863L13.6814 24.1014C12.6455 23.107 12.6112 21.461 13.6057 20.4251L13.7091 20.3173L15.018 18.9977C15.2647 18.7489 15.4351 18.444 15.5222 18.1171L19.9779 22.4921Z" fill="white" stroke="black" stroke-width="0.8"/>
<path d="M7.26758 16.2441L7.38574 17.0791C7.47155 17.6871 8.1824 17.9755 8.66797 17.5996L9.38965 17.041L10.3486 17.9512L9.86914 18.707C9.58147 19.1603 9.81284 19.7625 10.3301 19.9062L11.3037 20.1768L11.2158 21.7188L10.749 21.6777C10.1089 21.6217 9.66732 22.3056 9.98145 22.8662L10.3984 23.6094L9.41895 24.6484L8.59277 24.0732C8.10203 23.732 7.42435 24.0298 7.34375 24.6221L7.23633 25.4082L5.78418 25.3701L5.7373 24.665C5.69753 24.0635 5.03253 23.7206 4.51953 24.0371L3.71973 24.5303L2.71289 23.4355L3.26074 22.8096C3.6614 22.3528 3.42692 21.6344 2.83398 21.502L1.82129 21.2754L1.83984 20.1221L2.85059 19.8271C3.36928 19.676 3.59265 19.0648 3.29297 18.6152L2.86035 17.9668L3.79199 17.0254L4.42676 17.5449C4.90475 17.9354 5.62593 17.6605 5.72266 17.0508L5.85059 16.2441H7.26758Z" fill="white" stroke="black" stroke-width="0.8"/>
<circle cx="6.49683" cy="20.8557" r="1.77578" fill="white" stroke="black" stroke-width="0.8"/>
</svg>
