<svg width="27" height="28" viewBox="0 0 27 28" fill="none" xmlns="http://www.w3.org/2000/svg">
<path d="M19.0186 0.400391H6.32617C5.44252 0.400391 4.72656 1.11634 4.72656 2V25.6475C4.72656 26.5311 5.44252 27.2471 6.32617 27.2471H19.0186C19.9022 27.2471 20.6182 26.5311 20.6182 25.6475V2C20.6182 1.11634 19.9022 0.400391 19.0186 0.400391Z" fill="white" stroke="black" stroke-width="0.8"/>
<path d="M18.4873 1.84961H6.70801C6.37664 1.84961 6.1084 2.11785 6.1084 2.44922V24.1953C6.1084 24.5267 6.37664 24.7949 6.70801 24.7949H18.4873C18.8187 24.7949 19.0869 24.5267 19.0869 24.1953V2.44922C19.0869 2.11785 18.8187 1.84961 18.4873 1.84961Z" fill="white" stroke="black" stroke-width="0.8"/>
<path d="M2 3.17773H9C9.88366 3.17773 10.5996 3.89369 10.5996 4.77734V8.77734C10.5996 9.661 9.88366 10.377 9 10.377H7.88184L7.85156 10.7441L7.68262 12.7695C7.67584 12.8508 7.57952 12.89 7.51758 12.8369L4.76074 10.4736L4.64844 10.377H2C1.11634 10.377 0.400391 9.661 0.400391 8.77734V4.77734C0.400391 3.89369 1.11634 3.17773 2 3.17773Z" fill="white" stroke="black" stroke-width="0.8"/>
<path d="M25 9.17773H15C14.1163 9.17773 13.4004 9.89369 13.4004 10.7773V15.7773C13.4004 16.661 14.1163 17.377 15 17.377H16.1182L16.1484 17.7441L16.3174 19.7695C16.3242 19.8508 16.4205 19.89 16.4824 19.8369L19.2393 17.4736L19.3516 17.377H25C25.8837 17.377 26.5996 16.661 26.5996 15.7773V10.7773C26.5996 9.89369 25.8837 9.17773 25 9.17773Z" fill="white" stroke="black" stroke-width="0.8"/>
<path d="M15.8602 11.2583H24.3602" stroke="black" stroke-width="0.8" stroke-linecap="round"/>
<path d="M15.8602 13.2583H24.3602" stroke="black" stroke-width="0.8" stroke-linecap="round"/>
<path d="M20.3602 15.2583L24.3602 15.2583" stroke="black" stroke-width="0.8" stroke-linecap="round"/>
<path d="M11.834 25.8945L13.9033 25.8945" stroke="black" stroke-width="0.8" stroke-linecap="round"/>
<path d="M4 14.1777H10C10.8837 14.1777 11.5996 14.8937 11.5996 15.7773V20.0273C11.5996 20.7729 10.9956 21.377 10.25 21.377H9.88184L9.85156 21.7441L9.68262 23.7695C9.67584 23.8508 9.57952 23.89 9.51758 23.8369L6.76074 21.4736L6.64844 21.377H4C3.11634 21.377 2.40039 20.661 2.40039 19.7773V15.7773C2.40039 14.8937 3.11634 14.1777 4 14.1777Z" fill="white" stroke="black" stroke-width="0.8"/>
<path d="M9.31068 15.9904C8.56912 14.9708 7.40895 15.8657 7.09583 16.3654C6.55799 15.6271 5.30391 15.0524 4.76927 16.1395C4.02332 17.6563 6.05781 19.2793 7.05859 19.8547C8.23445 18.9414 10.1107 17.0905 9.31068 15.9904Z" fill="white" stroke="black" stroke-width="0.8"/>
<circle cx="3.07275" cy="6.6499" r="1.01162" fill="white" stroke="black" stroke-width="0.8"/>
<circle cx="7.38135" cy="8.26709" r="1.01162" fill="white" stroke="black" stroke-width="0.8"/>
<circle cx="7.38135" cy="5.26709" r="1.01162" fill="white" stroke="black" stroke-width="0.8"/>
<path d="M6.44169 5.64062L4.4111 6.48784C4.25389 6.55343 4.24541 6.77299 4.3971 6.85051L6.46809 7.90886" stroke="black" stroke-width="0.8"/>
</svg>
