<svg width="27" height="27" viewBox="0 0 27 27" fill="none" xmlns="http://www.w3.org/2000/svg">
<rect x="0.4" y="0.4" width="25.9809" height="21.4413" rx="1.6" fill="#F45328" stroke="white" stroke-width="0.8"/>
<path d="M7.71286 3.01374L7.80368 3.6612C7.88954 4.26916 8.60036 4.55755 9.08591 4.18171L9.65329 3.74323L10.4658 4.51472L10.081 5.12019C9.79332 5.57352 10.0256 6.17668 10.5429 6.32038L11.334 6.54011L11.2597 7.85261L10.957 7.82624C10.3171 7.77043 9.87558 8.45326 10.1894 9.01374L10.5127 9.59089L9.67673 10.4776L9.01657 10.0176C8.52587 9.67629 7.8473 9.97426 7.76657 10.5665L7.68454 11.1719L6.45114 11.1397L6.41599 10.6094C6.37615 10.0079 5.71024 9.6648 5.19724 9.98151L4.56442 10.3731L3.70505 9.43855L4.12985 8.95515C4.53066 8.49831 4.29529 7.77884 3.70212 7.64655L2.89059 7.46589L2.90622 6.4903L3.73434 6.24909C4.25282 6.09782 4.47538 5.48661 4.17575 5.03718L3.83591 4.52741L4.62399 3.73054L5.11227 4.12995C5.59025 4.52079 6.31238 4.24557 6.40915 3.63581L6.50778 3.01374H7.71286Z" stroke="white" stroke-width="0.8"/>
<path d="M7.05374 5.56691C7.91325 5.56691 8.61015 6.26316 8.61038 7.12257C8.61038 7.98218 7.91339 8.67921 7.05374 8.67921C6.19431 8.67897 5.49808 7.98203 5.49808 7.12257C5.4983 6.26331 6.19445 5.56716 7.05374 5.56691Z" stroke="white" stroke-width="0.8"/>
<g clip-path="url(#clip0_1677_1673)">
<path d="M12.7916 12.4354H15.0621C15.1821 12.4355 15.2836 12.5236 15.3004 12.6424L15.4899 13.9813C15.6018 14.7721 16.5261 15.148 17.1578 14.659L18.3151 13.7625C18.4091 13.6898 18.5423 13.6963 18.6285 13.7782L20.1637 15.2381C20.2471 15.3174 20.2634 15.4446 20.2018 15.5418L19.4332 16.7518C19.0589 17.3417 19.3607 18.1263 20.0338 18.3133L21.5924 18.7459C21.7016 18.7763 21.7756 18.8789 21.7692 18.992L21.6295 21.4627C21.6218 21.5983 21.5031 21.701 21.3678 21.6893L20.6198 21.6239C19.7868 21.5508 19.2122 22.4393 19.6207 23.1688L20.2887 24.3612C20.3401 24.453 20.3257 24.5678 20.2535 24.6444L18.6852 26.3084C18.6033 26.3952 18.4697 26.4088 18.3717 26.3407L17.0475 25.4198C16.4089 24.9757 15.5274 25.363 15.4225 26.1336L15.2506 27.3934C15.2338 27.515 15.1282 27.6046 15.0055 27.6014L12.6783 27.5399C12.554 27.5366 12.4522 27.4394 12.444 27.3153L12.3698 26.1854C12.3178 25.4027 11.4513 24.9569 10.7838 25.369L9.50354 26.16C9.4053 26.2206 9.27703 26.2029 9.19885 26.118L7.58557 24.3621C7.50231 24.2716 7.50065 24.1334 7.58167 24.0408L8.46057 23.0389C8.98203 22.4445 8.67651 21.5081 7.90491 21.3358L6.28186 20.9744C6.17035 20.9495 6.09158 20.8494 6.09338 20.7352L6.12366 18.8866C6.12536 18.781 6.19522 18.6887 6.29651 18.659L7.91663 18.1873C8.59153 17.9907 8.88173 17.1951 8.49182 16.6102L7.79846 15.5701C7.735 15.475 7.74727 15.3477 7.82776 15.2664L9.31995 13.7596C9.40732 13.6713 9.548 13.6635 9.64417 13.742L10.6617 14.5741C11.2837 15.0825 12.2223 14.7248 12.3483 13.9315L12.5533 12.6385C12.5719 12.5215 12.6731 12.4354 12.7916 12.4354Z" stroke="white" stroke-width="0.8"/>
<circle cx="13.6375" cy="19.5311" r="3.40859" stroke="white" stroke-width="0.8"/>
</g>
<rect x="9.84046" y="21.9809" width="7.12704" height="2.11891" fill="#F45328" stroke="white" stroke-width="0.8"/>
<path d="M9.49268 24.2369H16.9663V26.3804H7.89307V25.8365C7.89307 24.9528 8.60902 24.2369 9.49268 24.2369Z" fill="#F45328" stroke="white" stroke-width="0.8"/>
<path d="M26.5672 19.2085H0.504608" stroke="white" stroke-width="0.8"/>
<rect x="13.4934" y="5.71399" width="10.6607" height="20.6229" rx="1.6" fill="#F45328" stroke="white" stroke-width="0.8"/>
<rect x="13.4934" y="8.47433" width="10.6607" height="8.91915" stroke="white" stroke-width="0.8"/>
<path d="M18.7554 10.2822C20.2505 10.2823 21.4507 11.4724 21.4507 12.9268C21.4506 14.381 20.2504 15.5713 18.7554 15.5713C17.2605 15.5713 16.0603 14.381 16.0601 12.9268C16.0601 11.4724 17.2604 10.2822 18.7554 10.2822Z" stroke="white" stroke-width="0.8"/>
<path d="M24.5542 22.8093H13.0934" stroke="white" stroke-width="0.8"/>
<path d="M19.9925 24.6055L17.7506 24.6055" stroke="white" stroke-width="0.8" stroke-linecap="round"/>
<path d="M22.4628 21.0093L17.7506 21.0093" stroke="white" stroke-width="0.8" stroke-linecap="round"/>
<path d="M22.4628 19.2093L17.7506 19.2093" stroke="white" stroke-width="0.8" stroke-linecap="round"/>
<path d="M19.7351 11.9906L18.5403 13.619C18.4768 13.7056 18.3563 13.7266 18.2673 13.6666L17.6649 13.261" stroke="white" stroke-width="0.8" stroke-linecap="round"/>
<path d="M16.1634 19.2093L15.0535 19.2093" stroke="white" stroke-width="0.8" stroke-linecap="round"/>
<path d="M16.1634 21.0093L15.0535 21.0093" stroke="white" stroke-width="0.8" stroke-linecap="round"/>
<defs>
<clipPath id="clip0_1677_1673">
<rect width="15.2868" height="8.09285" fill="white" transform="translate(5.02618 11.5116)"/>
</clipPath>
</defs>
</svg>
